{
  "asset": {
    "version": "2.0",
    "generator": "THREE.GLTFExporter r168"
  },
  "scenes": [
    {
      "nodes": [
        0,
        1,
        2,
        3,
        4,
        5
      ]
    }
  ],
  "scene": 0,
  "nodes": [
    {},
    {
      "matrix": [
        1,
        0,
        0,
        0,
        0,
        1,
        0,
        0,
        0,
        0,
        1,
        0,
        0,
        1,
        0,
        1
      ],
      "extensions": {
        "KHR_lights_punctual": {
          "light": 0
        }
      }
    },
    {
      "matrix": [
        0.9452412696433709,
        0,
        0,
        0,
        0,
        0.7150570416550438,
        0,
        0,
        0,
        0,
        2.087644266775819,
        0,
        1.1015330527632488,
        -0.22678313761198932,
        -0.9017052515670088,
        1
      ],
      "extras": {
        "length": 1,
        "width": 1,
        "height": 1,
        "depth": 1,
        "radius": 1,
        "detail": 0,
        "widthSegments": 1,
        "heightSegments": 1,
        "depthSegments": 1,
        "capSegments": 4,
        "radialSegments": 8,
        "tubularSegments": 48,
        "radiusTop": 1,
        "radiusBottom": 1,
        "thetaStart": 0,
        "thetaLength": 6.283185307179586,
        "phiStart": 0,
        "phiLength": 6.283185307179586,
        "arc": 6.283185307179586,
        "tube": 0.4,
        "p": 2,
        "q": 3,
        "color": "#cb5757",
        "shape": "torusknot",
        "material": "standard"
      },
      "mesh": 0
    },
    {
      "matrix": [
        1.5967089473189129,
        0.9642460393672098,
        0.964169839658969,
        0,
        -0.697850545473715,
        1.011876968410441,
        0.1437151889978315,
        0,
        -2.4684306418895963,
        -2.6609206258377056,
        6.748963925875773,
        0,
        -1.1782004678007814,
        0.7592651701221734,
        -0.7502320632804671,
        1
      ],
      "extras": {
        "length": 1,
        "width": 1,
        "height": 1,
        "depth": 1,
        "radius": 1,
        "detail": 0,
        "widthSegments": 1,
        "heightSegments": 1,
        "depthSegments": 1,
        "capSegments": 4,
        "radialSegments": 8,
        "tubularSegments": 48,
        "radiusTop": 1,
        "radiusBottom": 1,
        "thetaStart": 0,
        "thetaLength": 6.283185307179586,
        "phiStart": 0,
        "phiLength": 6.283185307179586,
        "arc": 6.283185307179586,
        "tube": 0.4,
        "p": 2,
        "q": 3,
        "color": "#ffffff",
        "shape": "box",
        "material": "standard"
      },
      "mesh": 1
    },
    {
      "matrix": [
        0.8277509504115427,
        -0.3809877615350581,
        0.41191830458635065,
        0,
        0.16265717683814965,
        0.8655413001174654,
        0.4736886114463917,
        0,
        -0.5370018686334627,
        -0.32509472981190185,
        0.7784230274938531,
        0,
        -0.10604109969979952,
        0.06341388757079758,
        1.099469442715547,
        1
      ],
      "extras": {
        "length": 1,
        "width": 1,
        "height": 1,
        "depth": 1,
        "radius": 1,
        "detail": 0,
        "widthSegments": 1,
        "heightSegments": 1,
        "depthSegments": 1,
        "capSegments": 4,
        "radialSegments": 8,
        "tubularSegments": 48,
        "radiusTop": 1,
        "radiusBottom": 1,
        "thetaStart": 0,
        "thetaLength": 6.283185307179586,
        "phiStart": 0,
        "phiLength": 6.283185307179586,
        "arc": 6.283185307179586,
        "tube": 0.4,
        "p": 2,
        "q": 3,
        "color": "#ceabab",
        "shape": "icosahedron",
        "material": "standard"
      },
      "mesh": 2
    },
    {
      "matrix": [
        0.835899285104865,
        0.4017353627254376,
        -0.3740067960572865,
        0,
        -0.5455918437675195,
        0.6826439442497054,
        -0.4861345342531878,
        0,
        0.060016040985175184,
        0.6104145670895038,
        0.7898051222354787,
        0,
        -0.9284910783011135,
        1.8310666726874303,
        1.8460244577778988,
        1
      ],
      "extras": {
        "length": 1,
        "width": 1,
        "height": 1,
        "depth": 1,
        "radius": 1,
        "detail": 0,
        "widthSegments": 1,
        "heightSegments": 1,
        "depthSegments": 1,
        "capSegments": 4,
        "radialSegments": 8,
        "tubularSegments": 48,
        "radiusTop": 1,
        "radiusBottom": 1,
        "thetaStart": 0,
        "thetaLength": 6.283185307179586,
        "phiStart": 0,
        "phiLength": 6.283185307179586,
        "arc": 6.283185307179586,
        "tube": 0.4,
        "p": 2,
        "q": 3,
        "color": "#d908bd",
        "shape": "torus",
        "material": "standard"
      },
      "mesh": 3
    }
  ],
  "extensions": {
    "KHR_lights_punctual": {
      "lights": [
        {
          "color": [
            1,
            1,
            1
          ],
          "intensity": 1,
          "type": "directional"
        }
      ]
    }
  },
  "bufferViews": [
    {
      "buffer": 0,
      "byteOffset": 0,
      "byteLength": 5292,
      "target": 34962,
      "byteStride": 12
    },
    {
      "buffer": 0,
      "byteOffset": 5292,
      "byteLength": 5292,
      "target": 34962,
      "byteStride": 12
    },
    {
      "buffer": 0,
      "byteOffset": 10584,
      "byteLength": 3528,
      "target": 34962,
      "byteStride": 8
    },
    {
      "buffer": 0,
      "byteOffset": 14112,
      "byteLength": 4608,
      "target": 34963
    },
    {
      "buffer": 0,
      "byteOffset": 18720,
      "byteLength": 288,
      "target": 34962,
      "byteStride": 12
    },
    {
      "buffer": 0,
      "byteOffset": 19008,
      "byteLength": 288,
      "target": 34962,
      "byteStride": 12
    },
    {
      "buffer": 0,
      "byteOffset": 19296,
      "byteLength": 192,
      "target": 34962,
      "byteStride": 8
    },
    {
      "buffer": 0,
      "byteOffset": 19488,
      "byteLength": 72,
      "target": 34963
    },
    {
      "buffer": 0,
      "byteOffset": 19560,
      "byteLength": 720,
      "target": 34962,
      "byteStride": 12
    },
    {
      "buffer": 0,
      "byteOffset": 20280,
      "byteLength": 720,
      "target": 34962,
      "byteStride": 12
    },
    {
      "buffer": 0,
      "byteOffset": 21000,
      "byteLength": 480,
      "target": 34962,
      "byteStride": 8
    },
    {
      "buffer": 0,
      "byteOffset": 21480,
      "byteLength": 5292,
      "target": 34962,
      "byteStride": 12
    },
    {
      "buffer": 0,
      "byteOffset": 26772,
      "byteLength": 5292,
      "target": 34962,
      "byteStride": 12
    },
    {
      "buffer": 0,
      "byteOffset": 32064,
      "byteLength": 3528,
      "target": 34962,
      "byteStride": 8
    },
    {
      "buffer": 0,
      "byteOffset": 35592,
      "byteLength": 4608,
      "target": 34963
    }
  ],
  "buffers": [
    {
      "byteLength": 40200,
      "uri": "data:application/octet-stream;base64,"
    }
  ],
  "accessors": [
    {
      "bufferView": 0,
      "componentType": 5126,
      "count": 441,
      "max": [
        1.8999876976013184,
        1.8006826639175415,
        0.8897377848625183
      ],
      "min": [
        -1.5439223051071167,
        -1.8010592460632324,
        -0.8897621035575867
      ],
      "type": "VEC3"
    },
    {
      "bufferView": 1,
      "componentType": 5126,
      "count": 441,
      "max": [
        0.9999939799308777,
        0.972334623336792,
        0.9744052886962891
      ],
      "min": [
        -0.9999939799308777,
        -0.972334623336792,
        -0.9744052886962891
      ],
      "type": "VEC3"
    },
    {
      "bufferView": 2,
      "componentType": 5126,
      "count": 441,
      "max": [
        1,
        1
      ],
      "min": [
        0,
        0
      ],
      "type": "VEC2"
    },
    {
      "bufferView": 3,
      "componentType": 5123,
      "count": 2304,
      "max": [
        440
      ],
      "min": [
        0
      ],
      "type": "SCALAR"
    },
    {
      "bufferView": 4,
      "componentType": 5126,
      "count": 24,
      "max": [
        0.5,
        0.5,
        0.5
      ],
      "min": [
        -0.5,
        -0.5,
        -0.5
      ],
      "type": "VEC3"
    },
    {
      "bufferView": 5,
      "componentType": 5126,
      "count": 24,
      "max": [
        1,
        1,
        1
      ],
      "min": [
        -1,
        -1,
        -1
      ],
      "type": "VEC3"
    },
    {
      "bufferView": 6,
      "componentType": 5126,
      "count": 24,
      "max": [
        1,
        1
      ],
      "min": [
        0,
        0
      ],
      "type": "VEC2"
    },
    {
      "bufferView": 7,
      "componentType": 5123,
      "count": 36,
      "max": [
        23
      ],
      "min": [
        0
      ],
      "type": "SCALAR"
    },
    {
      "bufferView": 8,
      "componentType": 5126,
      "count": 60,
      "max": [
        0.8506507873535156,
        0.8506507873535156,
        0.8506507873535156
      ],
      "min": [
        -0.8506507873535156,
        -0.8506507873535156,
        -0.8506507873535156
      ],
      "type": "VEC3"
    },
    {
      "bufferView": 9,
      "componentType": 5126,
      "count": 60,
      "max": [
        0.9341723322868347,
        0.9341723322868347,
        0.9341723322868347
      ],
      "min": [
        -0.9341723322868347,
        -0.9341723322868347,
        -0.9341723322868347
      ],
      "type": "VEC3"
    },
    {
      "bufferView": 10,
      "componentType": 5126,
      "count": 60,
      "max": [
        1.0881041288375854,
        0.8237918019294739
      ],
      "min": [
        0,
        0.17620819807052612
      ],
      "type": "VEC2"
    },
    {
      "bufferView": 11,
      "componentType": 5126,
      "count": 441,
      "max": [
        1.399999976158142,
        1.399999976158142,
        0.4000000059604645
      ],
      "min": [
        -1.399999976158142,
        -1.399999976158142,
        -0.4000000059604645
      ],
      "type": "VEC3"
    },
    {
      "bufferView": 12,
      "componentType": 5126,
      "count": 441,
      "max": [
        1,
        1,
        1
      ],
      "min": [
        -1,
        -1,
        -1
      ],
      "type": "VEC3"
    },
    {
      "bufferView": 13,
      "componentType": 5126,
      "count": 441,
      "max": [
        1,
        1
      ],
      "min": [
        0,
        0
      ],
      "type": "VEC2"
    },
    {
      "bufferView": 14,
      "componentType": 5123,
      "count": 2304,
      "max": [
        440
      ],
      "min": [
        0
      ],
      "type": "SCALAR"
    }
  ],
  "materials": [
    {
      "pbrMetallicRoughness": {
        "baseColorFactor": [
          0.5972017883558645,
          0.09530746662221588,
          0.09530746662221588,
          1
        ],
        "metallicFactor": 0,
        "roughnessFactor": 1
      }
    },
    {
      "pbrMetallicRoughness": {
        "metallicFactor": 0,
        "roughnessFactor": 1
      }
    },
    {
      "pbrMetallicRoughness": {
        "baseColorFactor": [
          0.6172065624120635,
          0.407240211891531,
          0.407240211891531,
          1
        ],
        "metallicFactor": 0,
        "roughnessFactor": 1
      }
    },
    {
      "pbrMetallicRoughness": {
        "baseColorFactor": [
          0.6938717612856897,
          0.002428215868235294,
          0.508881320845802,
          1
        ],
        "metallicFactor": 0,
        "roughnessFactor": 1
      }
    }
  ],
  "meshes": [
    {
      "primitives": [
        {
          "mode": 4,
          "attributes": {
            "POSITION": 0,
            "NORMAL": 1,
            "TEXCOORD_0": 2
          },
          "indices": 3,
          "material": 0
        }
      ]
    },
    {
      "primitives": [
        {
          "mode": 4,
          "attributes": {
            "POSITION": 4,
            "NORMAL": 5,
            "TEXCOORD_0": 6
          },
          "indices": 7,
          "material": 1
        }
      ]
    },
    {
      "primitives": [
        {
          "mode": 4,
          "attributes": {
            "POSITION": 8,
            "NORMAL": 9,
            "TEXCOORD_0": 10
          },
          "material": 2
        }
      ]
    },
    {
      "primitives": [
        {
          "mode": 4,
          "attributes": {
            "POSITION": 11,
            "NORMAL": 12,
            "TEXCOORD_0": 13
          },
          "indices": 14,
          "material": 3
        }
      ]
    }
  ],
  "extensionsUsed": [
    "KHR_lights_punctual"
  ]
}